<?xml version="1.0" encoding="utf-8"?>
<!-- Generator: Adobe Illustrator 25.0.1, SVG Export Plug-In . SVG Version: 6.00 Build 0)  -->
<svg version="1.1" id="Layer_1" xmlns="http://www.w3.org/2000/svg" xmlns:xlink="http://www.w3.org/1999/xlink" x="0px" y="0px"
	 viewBox="0 0 595.28 841.89" style="enable-background:new 0 0 595.28 841.89;" xml:space="preserve">
<g>
	<g>
		<path d="M431.91,404.14c-0.06,0.05-0.12,0.1-0.19,0.15c0.04,0.04,0.07,0.07,0.11,0.1C431.87,404.31,431.89,404.22,431.91,404.14"
			/>
		<path d="M320.97,415.3c0.08-0.03,0.15-0.05,0.23-0.08c-0.1-0.09-0.19-0.19-0.29-0.29C320.93,415.06,320.96,415.18,320.97,415.3
			C320.97,415.3,320.97,415.3,320.97,415.3C320.97,415.3,320.97,415.3,320.97,415.3"/>
		<path d="M85.69,244.32c-3.78,4.2-6.77,8.97-9.27,14.03c9.94,2.08,20.1,3.29,29.55,7.34c1.75,0.75,4.72,1.15,5.93,0.2
			c4.32-3.42,4.11,1.54,5.89,2.72h0c0.44-3.68,2.11-4.35,5.87-3.65c10.08,1.89,19.69,0.9,27.6-6.26c-3.44-0.61-6.06-3.07-8.57-5.53
			c-8.28-8.1-16.41-16.35-24.6-24.54c-2.28-0.89-4.58-1.66-6.9-2.31C101.92,231.18,92.68,236.54,85.69,244.32"/>
		<path d="M180.7,452.63"/>
		<path d="M182.55,299.31c6.23-2.15,12.48-3.94,18.84-4.33c-0.67-5.98-0.7-12.03-0.03-18c0,0,0,0,0,0
			c-5.66-5.61-12.12-8.76-19.05-10.68c-0.98,2.06-1.96,4.12-2.96,6.16c-2.67,5.42-4.79,11.31-9.27,15.26
			c-5.15,4.54-9.62,9.62-13.84,14.9c1.37-0.2,2.74-0.39,4.11-0.59C167.58,299.76,175.35,301.8,182.55,299.31"/>
		<path d="M204.62,562.7c0-0.02,0-0.03,0-0.05l-0.04,0.02C204.6,562.68,204.61,562.69,204.62,562.7"/>
		<path d="M282.69,375.44L282.69,375.44c1.8-0.56,3.45-1.4,4.71-2.5c-2.85-0.93-5.69-1.86-8.54-2.79c0.02,0.73,0.09,1.43,0.53,1.97
			C281.19,372.53,282.26,373.66,282.69,375.44"/>
		<path d="M183.81,451.03L183.81,451.03c0-0.01,0.01-0.02,0.01-0.04c-0.01,0.01-0.03,0.02-0.04,0.02L183.81,451.03"/>
		<path d="M244.82,384.8c4.37-1.18,8.78-1.13,13.2-0.98c3.87,0.13,7.61,0.96,10.57-2.94c1.79-2.37,4.11-1.95,5.19,1.24
			c1.26,1.16,2.32,2.73,4.43,2.21c-1.89-2.13-4.53-4.1-0.49-6.79c1.51-1,1-2.78,0.52-4.3c-1.06-1.18-1.66-2.44-1.67-3.83
			c-4.7-1.54-9.4-3.07-14.11-4.6c-7.44-2.43-14.93-4.88-21.9-8.55c-10.74-5.66-19.71-14.44-26.41-24.94
			c-1.85,2.37-2.96,5.1-3.54,8.1c0,0,0,0,0,0c-0.38,7.6-0.15,15.33-4.73,22.02c-0.47,0.05-0.94,0.1-1.4,0.16
			c-0.02-0.02-0.04-0.03-0.06-0.05c0.03,0.03,0.06,0.05,0.06,0.05c-0.01,0.98-0.02,1.96-0.03,2.94c1.57,2.77,1.83,5.66,1.74,8.57
			c2.1-0.45,4.24-1.27,6.31-1.39c0.91-0.05,1.33,0.58,1.23,1.51C222.36,381.72,231.75,388.32,244.82,384.8"/>
		<path d="M183.85,540.87C183.85,540.86,183.85,540.86,183.85,540.87c0-0.06,0-0.12,0-0.18c-0.08,0.04-0.15,0.07-0.23,0.1
			C183.7,540.81,183.77,540.84,183.85,540.87"/>
		<path d="M183.81,451.16c0-0.04,0-0.09,0-0.13l-0.12,0.06C183.73,451.11,183.77,451.14,183.81,451.16"/>
		<path d="M180.7,452.63c0,0,0.06,0.07,0.06,0.07c-0.08,0.04-0.15,0.09-0.23,0.15c0.08,0.03,0.15,0.07,0.23,0.1
			c0-0.08,0-0.16-0.01-0.25c0.02-0.04,0.04-0.09,0.06-0.13L180.7,452.63z"/>
		<path d="M108.26,296.97c-0.04,0-0.08,0.01-0.12,0.01c0.02,0.03,0.04,0.05,0.06,0.08C108.23,297.03,108.24,297,108.26,296.97z"/>
		<path d="M167.08,317.92c0.02,0.03,0.05,0.06,0.08,0.09c0.03-0.03,0.07-0.05,0.09-0.07C167.2,317.94,167.15,317.94,167.08,317.92"
			/>
		<path d="M466.45,429.9c0,0-0.2-0.06-0.2-0.06c0,0.09,0,0.17-0.01,0.26C466.31,430.04,466.38,429.97,466.45,429.9"/>
		<path d="M265.46,623.79c0.01,0.08,0.02,0.16,0.04,0.25c0.05,0.02,0.11,0.03,0.16,0.05C265.58,623.99,265.52,623.89,265.46,623.79"
			/>
		<path d="M376.13,511.1c-0.01,0.01-0.02,0.01-0.02,0.02l0.01,0.02h0C376.12,511.12,376.12,511.11,376.13,511.1"/>
		<path d="M542.99,399.09c-3.52,5.64-6.1,11.12-4.49,17.01c6.34-9.61,10.63-20.2,13.08-31.33
			C548.77,389.57,545.94,394.37,542.99,399.09"/>
		<path d="M181.93,465.44c0.13,0.04,0.27,0.08,0.41,0.14c-0.01-0.11,0-0.2-0.01-0.31C182.18,465.31,182.05,465.37,181.93,465.44"/>
		<path d="M243.5,470.87c0.09,0.04,0.18,0.07,0.27,0.11c-0.08-0.05-0.15-0.09-0.23-0.14C243.52,470.85,243.51,470.86,243.5,470.87"
			/>
		<path d="M62.19,365.64c3.74-7.54,8.74-14.08,14.7-19.95h0c1.04-2.11,2.6-3.69,4.73-4.7h0c3.99-5.55,9.39-9.86,13.95-14.92
			c-1.29-0.53-2.57-1.1-3.85-1.67c-2.75-1.23-5.01-3.53-7.55-5.24c-0.55-0.37-1.01-0.73-1.4-1.08c-3.11,0.55-6.19,1.18-9.08,2.48
			c-3.49,1.57-6.84,2.83-9.25,6.48c-2.5,3.79-6.06,5.09-6.42-1.82v0c-0.58,0.54-1.16,1.07-1.73,1.61c-0.31,1.07-0.89,1.87-1.72,2.42
			c-3.45,17-5.14,33.85-3.64,50.34C55.63,375.86,59.44,371.19,62.19,365.64 M56.32,340.03c2.23,2.06,2.09,4.05-0.25,6.64
			C53.99,343.81,56.57,342.1,56.32,340.03"/>
		<path d="M200.71,409.98C200.71,409.98,200.71,409.98,200.71,409.98c-0.08-0.03-0.14-0.08-0.22-0.11c0,0.14,0,0.27,0,0.41
			C200.57,410.18,200.63,410.08,200.71,409.98L200.71,409.98z"/>
		<path d="M529.6,386.57L529.6,386.57c0.24,0,0.47-0.01,0.69-0.04c0.03-0.27,0.06-0.54,0.08-0.81
			C530.13,386.01,529.88,386.3,529.6,386.57"/>
		<path d="M519.45,405.71c0.06-0.26,0.13-0.51,0.17-0.75c-0.06,0-0.12,0.01-0.19,0.02C519.42,405.24,519.43,405.49,519.45,405.71"/>
		<path d="M108.17,296.79c0,0,0.1,0.18,0.1,0.18c0.06-0.06,0.13-0.12,0.19-0.18C108.36,296.79,108.26,296.79,108.17,296.79"/>
		<path d="M347.46,376.79c-6.16-0.22-12.85,0.66-19.57,1.41c0.25,3.13,0.34,6.3,0.41,9.47c4.24,4.68,7.04,10.57,12.24,14.43
			c3.95-0.04,5.18,3.7,7.76,5.57c3.95-0.03,5.21,3.69,7.79,5.58c0.37,0.36,0.74,0.73,1.1,1.1h0c6.63,3.02,11.47,7.84,14.48,14.48
			c10.13,14.45,20.76,28.63,26.27,45.71c2.06,6.38,1.1,13.04,0.84,19.51c-0.66,16.5,7.35,27.69,20.69,35.97
			c0.37,0.09,0.75,0.17,1.12,0.26c5.14-7.4,10.78-14.48,16.56-21.37c0.04-0.05,0.08-0.09,0.12-0.14c-1.26-3.8-2.67-7.57-3.96-11.35
			c-1.94-5.72-4.61-11.38-4.23-17.34c1.04-16.59-2.93-32.62-4.35-48.92c-0.48-5.52-1.87-11.46,1.41-16.81c0-0.74,0-1.48,0-2.22h0
			c-0.78-2.22-0.77-4.45,0-6.67c-3.47-17.94,4.06-36.29-2.54-54.28c-2.88-7.84-1.69-16.53-0.27-24.79c1.4-8.1-2.99-13.27-9.15-16.51
			c-6.53-3.44-13.06-7.25-20.54-8.4c0.15,7.72-0.25,15.22-1.11,21.49c-2.18,15.99-1.27,26.69-12.3,37.81
			C369.59,371.55,362.14,377.32,347.46,376.79"/>
		<path d="M248.87,397.56L248.87,397.56C248.86,397.56,248.86,397.57,248.87,397.56C248.86,397.57,248.87,397.57,248.87,397.56
			C248.87,397.57,248.87,397.56,248.87,397.56"/>
		<path d="M437.36,205.77L437.36,205.77L437.36,205.77c-0.67,1.4-1.33,2.8-2,4.2c1.57,0.11,4.01-1.02,3.55,2.18
			c-1.33,9.35,2.99,17.31,5.74,25.75c1.28,3.94,1.82,8.6,0.42,12.97h0c4.59,4.35,0.58,9.3,0.02,13.4c-1.37,10.03-2,19.92-1.12,29.96
			v0c5.43,9.04,9.22,18.29,5.92,29.22c-2.53,8.36-2.42,16.93,0.38,25.26c2.68,7.98,3.78,16.14,3.71,24.5v0
			c0.75,2.23,0.77,4.45-0.02,6.67h0c1.53,9.38-0.55,18.98,1.77,28.34c0.47,1.9,0.7,3.57,2.79,4.13c1.73,0.46,3.33-0.09,3.69-1.88
			c1.69-8.49,8.85-13.97,11.8-21.75c1.36-3.58,2.84-6.83,1.96-11.13c-0.91-4.44,0.69-7.88,5.83-3.25c0.03-0.79,0.06-1.58,0.09-2.36
			c-0.77-1.41-0.81-2.82-0.02-4.24c-4.04-6,3.24-7.45,4.6-11.3c1.36-3.86,12.09-1.41,6.77-9.94c1.76-0.99,3.52-0.54,5.27,0.04h0
			c2-0.89,2.05-5.04,5.6-3.35h0c4.44-2.81,10.34-3.02,13.02-9.09c1.34-3.03,6-1.51,9.18-1.97c0.39,0.25,0.71,0.58,0.95,0.97
			c0.73,0.04,1.46,0.08,2.2,0.12c0,0,0,0,0,0c0,0,0,0,0,0c3.07-2.03,5.56-0.84,7.84,1.42c0.06,0.06-0.14,0.49-0.31,0.61
			c-0.18,0.13-0.47,0.11-0.71,0.15c-4.47,4.32-4.49,10.85-7.87,15.84c-1.42,2.1-1.26,5.78,3.6,5.56c9.38-0.42,14.71-5.1,16.93-14.96
			c0.45-1.99,2.45-0.34,3.73-0.76c-4.83-32.18-21.09-64.05-43.86-86.19c-12.77-12.42-26.35-27.32-41.32-36.97
			c-10.46-6.75-21.17-13.01-32.14-18.69c0.77,1.05,1.04,2.32-0.02,4.21c0,0-0.43-0.14-0.43-0.14l0.43,0.14
			C435.99,204.23,436.68,205,437.36,205.77 M472.54,362.67c-3.03,0.12-4.34-1.39-4.52-4.87
			C471.51,358.35,470.89,361.38,472.54,362.67"/>
		<path d="M247.66,402.5c-0.09,0.04-0.18,0.08-0.27,0.11c0.09-0.02,0.18-0.04,0.26-0.07C247.66,402.53,247.66,402.52,247.66,402.5"
			/>
		<path d="M239.15,473.51L239.15,473.51c0,0,0.01,0,0.01,0C239.16,473.51,239.16,473.5,239.15,473.51
			C239.15,473.5,239.15,473.51,239.15,473.51"/>
		<path d="M167.86,440.18c0.06-0.01,0.12-0.03,0.18-0.04c0.01-0.04,0.03-0.08,0.04-0.12v0h0
			C168.01,440.07,167.94,440.13,167.86,440.18"/>
		<path d="M162.82,329.84c0.29,0,0.57,0,0.86,0C163.4,329.8,163.11,329.81,162.82,329.84"/>
		<path d="M366.72,507.51c-0.19-0.94,0.31-2.03,0.5-3.05c0.13-7.41-1.39-14.82,0.01-22.24c-0.06-3.69-1.31-6.98-3.36-10.01v0
			c-5.11-5.64-10.73-10.94-12.23-18.92c0.29-0.37,0.59-0.74,0.88-1.1c0,0,0,0,0.01,0h0c-0.69-0.7-1.37-1.4-2.06-2.1
			c-5.98-1.66-8.78-7.14-12.87-10.99c-7.53-7.07-16.06-11.3-26.46-12.01c-9.91-0.67-17.66-6.99-26.33-10.86
			c-12.08-5.4-23.9-9.96-37.82-7.26c-7.72,1.5-15.89,0.95-23.85,2.26c-1.54,0.25-2.86,0.87-4.15,1.56
			c3.98,6.79,5.17,14.82,7.96,22.13c4.72,12.36,9.85,23.95,21.61,31.88c6.51,4.4,11.91,10.56,18.46,15.27
			c3.45,2.47,7.72,1.91,10.99,5.17c3.81,3.8,0.55,3.7-1.47,4.78c0.58,1.04,1.16,2.08,1.74,3.12c1.79,1.15,1.49,2.98,1.53,4.7
			c1.57,0.54,3.13,1.07,4.7,1.61c0.93,0.17,2.77,0.78,1.88,1.41c-5.76,4.07-4.66,8.16-1.08,13.05c2.6,3.56-0.45,6.35-2.38,9.11
			c-0.13,2.68,3.47,5.98,0.24,7.78c-2.93,1.64-6.04-1.41-7.38-3.83c-2.32-4.16-6.94-3.56-10.18-5.81c-3.45-2.39-3.88,2.38-4.62,4.85
			c-0.38,1.26-0.47,2.84-2.08,2.67c-1.17-0.12-3.28-1.31-3.21-1.7c1.35-7.41-5.42-8.18-9.1-11.45c-0.68-0.61-0.53-1.35,0.19-1.94
			c-0.09-12.12-2.06-23.43-13.79-30.18c-3.92-2.26-7.01-5.41-10.03-8.64c-2.64-2.83-4.7-6.06-9.56-5.39
			c-2.94,0.41-4.28-1.53-2.8-4.55c-0.07-1.72,0.29-3.58-1.57-4.7c-0.17,2.84,0.3,6.11-4.46,5.15c-1.78-0.36-2.67,1.25-3.4,2.67
			c0,0,0,0,0,0c-0.14,2.53-1.25,4.37-3.85,5.31c-1.11-2.66,2.05-3.38,2.25-5.33c-0.99-1.56-0.94-3.12,0.01-4.67
			c-3.99-2.1-8.51-2.52-11.11,1.19c-4.28,6.1-10.69,11.93-6.51,20.91c0.61,1.32,0.23,3.1,0.31,4.66c0.01,1.56,0.01,3.13,0.02,4.69h0
			c3.74,5.02,3.98,11.17,4.46,16.91c0.42,4.9,1.38,9.69,1.82,14.55c12.82,7.87,23.26,18.23,31.41,30.81
			c3.17,4.89,7.77,7.54,12.62,10.09c2.92,1.34,5.61,2.99,8.17,4.84c6.86,0.95,13.62,2.11,20.25,3.48c3.52,0.73,7.19,1.59,9.43,3.28
			c2.1,1.58,2.58,3.61,2.58,5.6c11.51-0.39,23.02-1.63,34.86-2.62c1.28,2.17-1.79,2.19-3.12,3.29c-0.06,0.05,0.12,0.58,0.28,0.64
			c0.48,0.18,1,0.25,1.5,0.36c0.51-0.01,1.02-0.01,1.53-0.01c0.34-0.02,0.68-0.03,1.02-0.04c-0.02-0.18-0.04-0.37-0.05-0.55
			c-0.16-2.32,0.08-4.81,2.58-6.67c2.27-1.69,5.98-2.55,9.55-3.28c13.53-2.77,27.63-4.68,41.94-5.69c4.28-0.37,7.17,2.59,9.03,4.68
			c2.08,2.33,2.71,4.97,2.93,7.57c0.22,2.69-0.08,5.57-2.87,7.79c-3.18,2.52-8.86,3.63-14.18,4.54c-10.85,1.86-21.8,3.53-32.84,5
			c-1.28,0.17-2.64,0.33-3.99,0.4c-2.64,0.14-5.23-0.04-7.03-1.05c-1.31-0.74-1.88-1.78-2.35-2.78c-0.69-1.49-1.25-2.99-1.69-4.51
			c-3.39,2.18-6.07,4.98-5.34,10.83c0.24,1.91-4.06,1.38-6.15-0.37l0,0c-1.03-0.06-2.05-0.11-3.07-0.17
			c-3.62,1.34-7.47,2.28-10.8,4.15c-3.79,2.12-4.89,5.8-3.4,10.04c1.95,0.32,3.65,0.88,5.16,1.62c0.31-0.51,0.73-0.89,1.25-0.94
			c-0.9-1.35,0.89-2.31,1.97-1.78c0.92,0.44,1.39,1.46,1.8,2.4c1.5,3.49,2.99,6.98,4.49,10.47c0.64,1.5,1.29,3.01,2.29,4.3
			c1.29,1.67,3.08,2.87,4.56,4.36s2.7,3.53,2.35,5.61c-0.32,1.91-1.93,3.41-3.74,4.1c-0.39,0.15-0.78,0.26-1.18,0.35
			c-0.36,2.87-2.78,3.35-6.37,2.53c-4.11,1.8-6.73,1.65-9.83-2.91c-0.28-0.41-0.58-0.79-0.9-1.17c-2.01-0.57-4.04-1.54-4.65-3.47
			c-0.07-0.23-0.11-0.45-0.14-0.67c-2.31-1.59-4.82-3.04-7.07-4.63c-7.6-5.38-13.77-12.02-18.3-20.16
			c-6.29-4.72-12.58-9.45-18.87-14.17c-3.53-1.84-6.32-4.62-9.16-7.34c-0.12-0.02-0.25-0.04-0.37-0.06
			c-5.25-0.91-10.85-2.02-14-4.54c-2.35-1.89-2.91-4.25-2.89-6.58c-6.81-4.16-12.72-9.34-16.46-17.11
			c-0.64-1.32-2.25-3.77-4.23-2.37c-2.7,1.9-3.65,5.14-3.09,8.39c1.07,6.13,3.46,12.21,3.49,18.32c0.06,13.46,6.66,23.58,14.6,33.39
			c2.24,2.77,4.83,5.52,5.37,9.35c0,1.05,0,2.09,0.01,3.14c4.45,3.06,4.62,7.82,4.67,12.44c0.09,7.8,0.07,15.6,0.06,23.4
			c5.63,11.86,12.79,22.82,22.78,31.21c8.19,6.88,17.81,11.6,28.05,14.69c0.02-0.21,0.05-0.41,0.07-0.64
			c0.57,0.29,1.07,0.68,1.54,1.09c2.24,0.64,4.5,1.21,6.78,1.7c1.12-0.73,2.43-0.66,3.88-0.14c-0.06,0.34-0.18,0.61-0.32,0.84
			c6.65,1.21,13.43,1.86,20.14,2.08c28.55-1.84,53.19-14.27,68.97-38.14c15.78-23.86,23.29-52.17,28.81-80.24
			c3.12-15.86,5.71-31.96,11.63-47c0.04-0.09,0.08-0.18,0.11-0.27C384.25,548.87,371.47,530.8,366.72,507.51 M303.28,688.31
			c-0.82,2.77-1.66,5.58-3.27,7.97s-4.15,4.34-7.02,4.51c0,0-1.35,0.08-2.91,0.19c-2.71-1.15-5.34-2.51-7.84-4.07
			c-1.08-0.67-2.19-1.43-2.8-2.55c-0.58-1.06-0.64-2.32-0.69-3.52c-0.09-2.2-0.17-4.47,0.55-6.55c0.88-2.55,2.88-4.56,5.07-6.14
			c2.1-1.51,4.5-2.71,7.01-3.25c1.48-0.32,3-0.41,4.51-0.2c4.07,0.56,7.91,3.74,8.32,7.83
			C304.41,684.48,303.84,686.43,303.28,688.31"/>
		<path d="M235.55,179.47c-4.93,10.28-5.18,20.34-3,31.1c0.71,3.48,1.46,6.92,2.27,10.34c4.63-3.47,9.57-6.48,14.7-8.98
			c23.4-11.37,52.88-18.64,75.58-7.17c38.74,23.71,50.63,28.46,63.34,62.97c1.38,3.74,2.46,8.03,3.27,12.62
			c5.81,1.77,10.96,5.73,17.52,5.96c5.87,0.21,7.26-2.92,9.51-7.06c3.18-5.84,0.17-13.22,5.18-18.37
			c0.31-8.56,2.41-17.19-1.11-25.58c-6.14-10.1-1.19-19.06,2.71-28.25c2-4.71,4.63-6.47,9.34-3.73c-1.1-2.25-3.72-3.62-4.02-6.34
			c-22.23-11.12-45.53-19.8-70.03-25.16c-18.96-4.15-38.48-4.9-57.91-4.17c-4.28,0.16-8.56,0.39-12.83,0.67
			c-18.4,1.22-36.04,3.94-53.19,7.91C236.51,177.34,236.06,178.42,235.55,179.47"/>
		<path d="M528.53,423.23C528.53,423.24,528.53,423.24,528.53,423.23c1.46,2.93-0.7,4.71-2.59,5.64
			c-12.55,6.21-22.82,16.21-35.94,21.46c-1.77,0.71-4.15,2.53-4.33,4.05c-0.64,5.47-4,1.82-6.09,2.24c2.29,2.91,1.59,4.57-1.57,6.73
			c-8.26,5.66-14.27,12.93-15.05,23.19c8.58-6.03,17.4-11.89,25.85-19.73c12.73-11.8,33.02-29.36,44.73-43.93
			C531.9,422.55,530.25,422.48,528.53,423.23"/>
		<path d="M152.04,224.78c3.13,4.8,9.93,4.08,13.26,8.5c4.34-8.87,9.22-17.37,18.5-23c7.06-4.28,10.11-11.76,10.99-19.82
			c0.07-0.64,0.15-1.28,0.25-1.92c-18.39,6.52-36.44,14.3-54.51,22.98C144.87,215.44,148.79,219.79,152.04,224.78"/>
		<path d="M155.51,528.42c2.42-13.8-2.66-26.63-6.88-39.81c-4.05-12.65,0.21-24.25,8.57-34.33c0.51-0.53,1.03-1.06,1.54-1.59
			c0,0,0,0,0,0c0,0,0,0,0,0c1.78-11.87,9.42-20.17,17.25-28.35c0.31-6.3,2.49-12.45,1.55-18.86c-2.82-2.76-1.05-6.28-1.55-9.43
			c0,0,0,0,0,0c-2.81-2.77-1.07-6.3-1.57-9.46c-0.01-0.52-0.01-1.04,0-1.56v0c-2.55-6.83-2.57-13.65,0-20.48
			c2.27-12.87,4.23-25.83,8.42-38.18c-5.15,1.48-10.47,2.03-15.83,2.34c-1.37-0.41-2.4,0.23-3.34,1.11
			c-2.67,1.91-5.48,3.29-8.89,2.23c-0.74,0.74-1.49,1.48-2.23,2.22c-10.85,10.44-20.17,22.18-30.18,34.03
			c-2.44-0.62-0.28-2.81-0.12-4.53c0.01-0.07-0.49-0.32-0.65-0.26c-0.47,0.21-0.88,0.53-1.32,0.81c-0.36,0.36-0.72,0.73-1.08,1.08h0
			h0c-0.71,0.78-1.42,1.55-2.14,2.33c-0.17,3.12-1.8,4.63-5.18,4.55c0.24-6.71,5.97-13.69-0.98-19.95
			c-9.93,9.55-22,17.15-28.13,30.39c-3.51,7.58-10.5,12.89-17.34,17.72c-5.02,3.54-6.6,8.21-6.21,13.12
			c1.74,4.15,3.75,8.26,6.09,12.33c22.17,38.67,62.69,63.42,88.36,99.86C154.31,526.64,154.91,527.53,155.51,528.42"/>
		<path d="M377.35,521.14c-0.01-0.01-0.01-0.02-0.02-0.02c-0.01,0.01-0.02,0.02-0.03,0.03
			C377.33,521.14,377.34,521.14,377.35,521.14"/>
		<path d="M167.96,447.79c0.02,0.01,0.04,0.02,0.05,0.03c0.01-0.02,0.01-0.04,0.01-0.07c0,0,0,0,0,0c0,0,0,0,0,0
			C168.01,447.76,167.98,447.77,167.96,447.79"/>
		<path d="M326,385.46c0.01,0,0.02,0,0.04,0c-0.01-0.01-0.02-0.02-0.04-0.04C326,385.44,326,385.45,326,385.46"/>
		<path d="M114.6,339.3c-0.09,0.04-0.17,0.09-0.26,0.14c0.08,0.01,0.17,0.02,0.26,0.03C114.6,339.41,114.6,339.36,114.6,339.3"/>
		<path d="M466.25,429.84L466.25,429.84l0.07-0.09c-0.03,0-0.06-0.01-0.09-0.01C466.23,429.77,466.24,429.8,466.25,429.84"/>
		<path d="M524.48,400.02l-0.04,0.16c0.06,0.03,0.13,0.06,0.19,0.08C524.58,400.18,524.53,400.1,524.48,400.02"/>
		<path d="M511.86,359.9c0,0,0.01-0.01,0.01-0.01c0-0.01-0.01-0.01-0.01-0.02C511.86,359.88,511.86,359.89,511.86,359.9"/>
		<path d="M239.56,474.85c-0.16-0.24-0.26-0.5-0.32-0.77c-0.01,0.24-0.08,0.46-0.21,0.66C239.19,474.8,239.37,474.84,239.56,474.85"
			/>
		<path d="M501.83,345.43L501.83,345.43c0.01,0.01,0.02,0.02,0.04,0.02c-0.01-0.01-0.01-0.03-0.02-0.04L501.83,345.43z"/>
		<path d="M176.03,427.56c0.01-0.01,0.02-0.02,0.03-0.03c-0.01-0.01-0.02-0.02-0.03-0.02C176.03,427.52,176.03,427.54,176.03,427.56
			"/>
		<path d="M248.4,397.22c-0.17-0.17-0.27-0.38-0.32-0.62c-0.15,0.08-0.31,0.18-0.46,0.3C247.91,396.96,248.16,397.08,248.4,397.22"
			/>
		<path d="M523.81,400.62c0.21-0.15,0.42-0.3,0.63-0.45C524.13,400.24,523.93,400.4,523.81,400.62"/>
	</g>
</g>
</svg>
