{
  "asset": {
    "generator": "Khronos glTF Blender I/O v1.4.40",
    "version": "2.0"
  },
  "scene": 0,
  "scenes": [
    {
      "name": "Scene",
      "nodes": [
        0
      ]
    }
  ],
  "nodes": [
    {
      "mesh": 0,
      "name": "Curve.001",
      "rotation": [
        0.7071067690849304,
        0,
        0,
        0.7071068286895752
      ],
      "scale": [
        19.169111251831055,
        18.239110946655273,
        19.169111251831055
      ],
      "translation": [
        0,
        1.885759949684143,
        -0.0833175852894783
      ]
    }
  ],
  "materials": [
    {
      "doubleSided": true,
      "name": "Material",
      "pbrMetallicRoughness": {}
    }
  ],
  "meshes": [
    {
      "name": "Curve.003",
      "primitives": [
        {
          "attributes": {
            "POSITION": 0,
            "NORMAL": 1
          },
          "indices": 2,
          "material": 0
        }
      ]
    }
  ],
  "accessors": [
    {
      "bufferView": 0,
      "componentType": 5126,
      "count": 1095580,
      "max": [
        0.0726679116487503,
        0.01077129878103733,
        0.053471677005290985
      ],
      "min": [
        -0.06965338438749313,
        -0.010050879791378975,
        -0.10408567637205124
      ],
      "type": "VEC3"
    },
    {
      "bufferView": 1,
      "componentType": 5126,
      "count": 1095580,
      "type": "VEC3"
    },
    {
      "bufferView": 2,
      "componentType": 5125,
      "count": 6573528,
      "type": "SCALAR"
    }
  ],
  "bufferViews": [
    {
      "buffer": 0,
      "byteLength": 13146960,
      "byteOffset": 0
    },
    {
      "buffer": 0,
      "byteLength": 13146960,
      "byteOffset": 13146960
    },
    {
      "buffer": 0,
      "byteLength": 26294112,
      "byteOffset": 26293920
    }
  ],
  "buffers": [
    {
      "uri": "peatekst_data.bin",
      "byteLength": 52588032
    }
  ]
}