{
    "asset" : {
        "generator" : "Khronos glTF Blender I/O v1.4.40",
        "version" : "2.0"
    },
    "scene" : 0,
    "scenes" : [
        {
            "name" : "Scene",
            "nodes" : [
                0
            ]
        }
    ],
    "nodes" : [
        {
            "mesh" : 0,
            "name" : "Curve.048",
            "rotation" : [
                0.7071067690849304,
                0,
                0,
                0.7071068286895752
            ],
            "scale" : [
                16.010597229003906,
                16.010597229003906,
                16.010597229003906
            ],
            "translation" : [
                0,
                -0.5423577427864075,
                0
            ]
        }
    ],
    "materials" : [
        {
            "doubleSided" : true,
            "name" : "SVGMat",
            "pbrMetallicRoughness" : {}
        }
    ],
    "meshes" : [
        {
            "name" : "Curve.048",
            "primitives" : [
                {
                    "attributes" : {
                        "POSITION" : 0,
                        "NORMAL" : 1,
                        "TEXCOORD_0" : 2
                    },
                    "indices" : 3,
                    "material" : 0
                }
            ]
        }
    ],
    "accessors" : [
        {
            "bufferView" : 0,
            "componentType" : 5126,
            "count" : 30840,
            "max" : [
                0.15597893297672272,
                0.006000000052154064,
                -0.0330052375793457
            ],
            "min" : [
                0.01421886682510376,
                -0.006000000052154064,
                -0.19031694531440735
            ],
            "type" : "VEC3"
        },
        {
            "bufferView" : 1,
            "componentType" : 5126,
            "count" : 30840,
            "type" : "VEC3"
        },
        {
            "bufferView" : 2,
            "componentType" : 5126,
            "count" : 30840,
            "type" : "VEC2"
        },
        {
            "bufferView" : 3,
            "componentType" : 5123,
            "count" : 55482,
            "type" : "SCALAR"
        }
    ],
    "bufferViews" : [
        {
            "buffer" : 0,
            "byteLength" : 370080,
            "byteOffset" : 0
        },
        {
            "buffer" : 0,
            "byteLength" : 370080,
            "byteOffset" : 370080
        },
        {
            "buffer" : 0,
            "byteLength" : 246720,
            "byteOffset" : 740160
        },
        {
            "buffer" : 0,
            "byteLength" : 110964,
            "byteOffset" : 986880
        }
    ],
    "buffers" : [
        {
            "byteLength" : 1097844,
            "uri" : "uuspea.bin"
        }
    ]
}
